PathFileType	4	(X/Y/Z)	/Users/itak/Documents/Research/Walk-IL/dataset/trc/00003_00004.trc
DataRate	CameraRate	NumFrames	NumMarkers	Units	OrigDataRate	OrigDataStartFrame	OrigNumFrames
100.000000	100.000000	4	53	mm	100.000000	213	569
Frame#	Time	RPSI			LPSI			L3			STRN			T10			C7			CLAV			RBAK			LBAK			LSHO			LUPA			LAEL			LAOL			LWTS			LWPS			LFRA			LIFD			LHPS			LHTS			RSHO			RUPA			RAEL			RAOL			RWTS			RWPS			RFRA			RIFD			RHTS			RHPS			RBHD			LFHD			RFHD			LBHD			LHIP			RHIP			RASI			LASI			LKNE			LTHI			LANK			LTIP			LTOE			LMT1			LMT5			LHEE			RKNE			RTHI			RANK			RTIP			RTOE			RMT1			RMT5			RHEE			
		X1	Y1	Z1	X2	Y2	Z2	X3	Y3	Z3	X4	Y4	Z4	X5	Y5	Z5	X6	Y6	Z6	X7	Y7	Z7	X8	Y8	Z8	X9	Y9	Z9	X10	Y10	Z10	X11	Y11	Z11	X12	Y12	Z12	X13	Y13	Z13	X14	Y14	Z14	X15	Y15	Z15	X16	Y16	Z16	X17	Y17	Z17	X18	Y18	Z18	X19	Y19	Z19	X20	Y20	Z20	X21	Y21	Z21	X22	Y22	Z22	X23	Y23	Z23	X24	Y24	Z24	X25	Y25	Z25	X26	Y26	Z26	X27	Y27	Z27	X28	Y28	Z28	X29	Y29	Z29	X30	Y30	Z30	X31	Y31	Z31	X32	Y32	Z32	X33	Y33	Z33	X34	Y34	Z34	X35	Y35	Z35	X36	Y36	Z36	X37	Y37	Z37	X38	Y38	Z38	X39	Y39	Z39	X40	Y40	Z40	X41	Y41	Z41	X42	Y42	Z42	X43	Y43	Z43	X44	Y44	Z44	X45	Y45	Z45	X46	Y46	Z46	X47	Y47	Z47	X48	Y48	Z48	X49	Y49	Z49	X50	Y50	Z50	X51	Y51	Z51	X52	Y52	Z52	X53	Y53	Z53	

214	2.13	-699.1428833007812	1049.672241210938	-209.4164276123047	-704.0943603515625	1052.597900390625	-371.7716979980469	-704.8603515625	1119.046752929688	-297.6488037109375	-473.4102172851562	1308.358520507812	-294.4482727050781	-725.317626953125	1266.188110351562	-298.4999694824219	-668.8139038085938	1531.233276367188	-308.032470703125	-512.8336791992188	1435.410278320312	-300.3190002441406	-725.0258178710938	1396.447631835938	-228.1464538574219	-685.7854614257812	1490.643920898438	-405.9336242675781	-581.7610473632812	1495.790649414062	-478.0631713867188	-613.3533935546875	1372.641357421875	-558.8530883789062	-622.0296630859375	1155.451538085938	-589.0623779296875	-685.61865234375	1144.738159179688	-503.8029479980469	-560.7213134765625	894.1380004882812	-534.14892578125	-634.4776000976562	888.1222534179688	-583.5543212890625	-617.503173828125	1039.166015625	-597.0194702148438	-550.6823120117188	707.0738525390625	-521.14892578125	-610.2410888671875	795.6741333007812	-582.1517333984375	-546.9449462890625	799.4317626953125	-548.9607543945312	-594.864501953125	1516.937866210938	-132.7970428466797	-609.6069946289062	1445.30322265625	-59.93822860717773	-639.6102294921875	1176.241455078125	-31.38823509216309	-646.2642822265625	1147.491455078125	-127.4492950439453	-465.3767395019531	948.0855102539062	-79.39168548583984	-520.9655151367188	916.9680786132812	-13.09116363525391	-614.9069213867188	1100.204833984375	-17.96840476989746	-402.6138916015625	772.3738403320312	-99.68706512451172	-406.6213989257812	848.6688842773438	-69.79990386962891	-458.602294921875	829.6111450195312	-18.85002708435059	-612.3280639648438	1711.076904296875	-369.7284545898438	-432.4271545410156	1721.925537109375	-245.8294525146484	-431.3924255371094	1720.494018554688	-344.4524536132812	-605.966796875	1708.459106445312	-225.0753173828125	-605.7943725585938	959.0060424804688	-483.9252014160156	-583.2791748046875	941.425537109375	-109.7057647705078	-483.7561645507812	978.3786010742188	-185.1104583740234	-491.017578125	1004.844604492188	-419.4461975097656	-491.1123352050781	520.78271484375	-413.5468139648438	-534.5747680664062	652.1910400390625	-459.5934753417969	-619.7428588867188	38.82985305786133	-408.877197265625	-576.3901977539062	279.6556701660156	-429.3881225585938	-413.5697937011719	37.98297119140625	-307.9793701171875	-474.4768981933594	46.10690307617188	-302.7617492675781	-493.6140747070312	38.41796493530273	-408.858642578125	-696.4840087890625	46.76886749267578	-366.1107788085938	-494.171630859375	506.4058837890625	-130.7705535888672	-537.6846313476562	780.71630859375	-111.8978805541992	-906.0448608398438	215.8898620605469	-145.8700561523438	-580.35888671875	408.4877319335938	-126.7434768676758	-739.0453491210938	56.70760726928711	-144.1486663818359	-778.0578002929688	96.12139892578125	-187.1069183349609	-808.1387939453125	115.2595367431641	-95.82109069824219	-939.0086669921875	247.3175506591797	-200.2322235107422	
215	2.14	-691.6117553710938	1050.37451171875	-209.8092803955078	-697.2653198242188	1053.035400390625	-372.1772766113281	-697.564697265625	1119.734619140625	-298.4487915039062	-466.1935424804688	1309.151000976562	-295.2874450683594	-718.2869262695312	1266.800903320312	-299.8272399902344	-661.6576538085938	1531.8388671875	-309.3486633300781	-505.7184448242188	1436.171752929688	-301.1856994628906	-718.0510864257812	1397.062133789062	-229.6025085449219	-678.3994140625	1491.27490234375	-407.32763671875	-574.1945190429688	1496.570434570312	-479.0122375488281	-604.5901489257812	1373.42919921875	-560.2427368164062	-610.6090698242188	1156.167602539062	-591.0108642578125	-675.0753784179688	1144.575805664062	-506.4466247558594	-546.227294921875	895.7228393554688	-535.637939453125	-619.4191284179688	888.6756591796875	-585.8425903320312	-604.520751953125	1039.951049804688	-599.032470703125	-533.6115112304688	708.837890625	-522.8292846679688	-593.9479370117188	796.6864624023438	-584.3134765625	-530.9550170898438	801.2646484375	-550.4651489257812	-588.1795043945312	1517.608154296875	-133.8661956787109	-603.2720336914062	1445.977905273438	-61.13203811645508	-633.737060546875	1176.970336914062	-32.81203079223633	-639.9519653320312	1148.253662109375	-128.9073028564453	-459.5979309082031	948.6154174804688	-79.95237731933594	-515.5922241210938	917.4984741210938	-13.98198986053467	-609.2166748046875	1100.887451171875	-19.2888355255127	-397.0354309082031	772.762939453125	-100.0097045898438	-401.0712280273438	849.0902709960938	-70.10067749023438	-453.3949279785156	830.0620727539062	-19.33500099182129	-604.82421875	1711.82275390625	-370.7083129882812	-425.0853576660156	1722.324340820312	-246.5808868408203	-423.9276428222656	1720.901977539062	-345.2101745605469	-598.7105102539062	1709.17431640625	-226.0726470947266	-599.8245239257812	959.0173950195312	-484.5160217285156	-575.0146484375	942.9254760742188	-110.2488555908203	-476.1365051269531	979.6577758789062	-186.5535125732422	-484.422607421875	1005.007690429688	-420.948486328125	-489.2048034667969	519.9716796875	-414.5185546875	-531.4510498046875	651.7545776367188	-460.2789306640625	-619.7763671875	38.88785934448242	-408.8049621582031	-575.6802368164062	279.43701171875	-429.6824340820312	-413.5715026855469	38.00097274780273	-308.0028991699219	-474.5023803710938	46.09018707275391	-302.7568664550781	-493.623046875	38.43126678466797	-408.8619384765625	-696.5604858398438	46.86260986328125	-366.0678405761719	-479.0082092285156	509.2920837402344	-132.7464141845703	-527.2855224609375	782.6953125	-112.800163269043	-883.183349609375	207.701416015625	-147.2173156738281	-563.353515625	409.8863830566406	-128.2932891845703	-709.8153686523438	55.53030014038086	-143.5193786621094	-750.3263549804688	93.01428985595703	-186.6682586669922	-781.5831909179688	111.6590423583984	-96.02757263183594	-917.3165283203125	237.2634582519531	-201.9782257080078	
216	2.15	-684.1073608398438	1051.034545898438	-210.1409759521484	-690.4228515625	1053.430053710938	-372.5344848632812	-690.2842407226562	1120.356689453125	-299.1932678222656	-458.9822082519531	1309.87255859375	-296.1225280761719	-711.1869506835938	1267.328491210938	-301.0669555664062	-654.5098266601562	1532.380126953125	-310.6096496582031	-498.6086730957031	1436.867431640625	-302.0264892578125	-711.0658569335938	1397.606323242188	-230.9976501464844	-671.0327758789062	1491.841186523438	-408.6609191894531	-566.659912109375	1497.313110351562	-479.9285278320312	-595.9114379882812	1374.2021484375	-561.5795288085938	-599.3350219726562	1156.897827148438	-592.8825073242188	-664.529541015625	1144.415405273438	-508.9546813964844	-531.6870727539062	897.4305419921875	-536.9803466796875	-604.292724609375	889.2855834960938	-587.905517578125	-591.6207885742188	1040.767700195312	-600.927978515625	-516.3092041015625	710.8001098632812	-524.2356567382812	-577.4758911132812	797.789306640625	-586.2092895507812	-514.8270263671875	803.252197265625	-551.766845703125	-581.472412109375	1518.205322265625	-134.9085083007812	-596.8951416015625	1446.593994140625	-62.28733825683594	-627.859130859375	1177.663452148438	-34.14641952514648	-633.6918334960938	1148.968139648438	-130.2710113525391	-454.0870666503906	948.926025390625	-80.45519256591797	-510.4845886230469	917.8927001953125	-14.75790691375732	-603.5909423828125	1101.5244140625	-20.51179885864258	-391.9508361816406	772.8449096679688	-100.2632598876953	-395.8957824707031	849.2176513671875	-70.35037994384766	-448.5422058105469	830.296142578125	-19.76675987243652	-597.3499145507812	1712.520751953125	-371.6448364257812	-417.7658386230469	1722.659912109375	-247.2880096435547	-416.4855651855469	1721.251098632812	-345.9280395507812	-591.4703369140625	1709.832153320312	-227.0141296386719	-593.8419799804688	958.9778442382812	-485.0413818359375	-566.7302856445312	944.382568359375	-110.7566146850586	-468.5190734863281	980.8564453125	-187.9372253417969	-477.8545837402344	1005.062072753906	-422.3885498046875	-487.3043823242188	519.15478515625	-415.5063171386719	-528.3115844726562	651.3113403320312	-460.9519348144531	-619.8026123046875	38.93607330322266	-408.7357177734375	-574.9669799804688	279.2260437011719	-429.9867553710938	-413.5621643066406	38.01164245605469	-308.0418090820312	-474.5089416503906	46.08100509643555	-302.766357421875	-493.6384887695312	38.41177749633789	-408.8826599121094	-696.63232421875	46.97836685180664	-366.0262145996094	-464.2410278320312	512.2255249023438	-134.7573394775391	-517.0223999023438	784.6439208984375	-113.6607360839844	-859.5870971679688	198.5988616943359	-148.4234924316406	-546.5372924804688	411.1478271484375	-129.8262939453125	-679.715087890625	54.2065315246582	-143.0444030761719	-721.790771484375	89.60668182373047	-186.3916625976562	-754.25439453125	107.4916381835938	-96.22637939453125	-894.91650390625	226.2182922363281	-203.5220947265625	
217	2.16	-676.630126953125	1051.6416015625	-210.4392700195312	-683.5516967773438	1053.770263671875	-372.8502197265625	-683.0159301757812	1120.907348632812	-299.8908386230469	-451.7762451171875	1310.507690429688	-296.9462585449219	-704.0098876953125	1267.770141601562	-302.2408142089844	-647.3626098632812	1532.849365234375	-311.8190612792969	-491.4930725097656	1437.482177734375	-302.8365478515625	-704.06689453125	1398.072143554688	-232.3394165039062	-663.6705322265625	1492.33447265625	-409.9363403320312	-559.141357421875	1498.00146484375	-480.8146057128906	-587.3076171875	1374.939819335938	-562.86376953125	-588.234130859375	1157.61962890625	-594.6863403320312	-654.00634765625	1144.243774414062	-511.3387756347656	-517.1337890625	899.2596435546875	-538.1748046875	-589.11865234375	889.9400024414062	-589.7340698242188	-578.822021484375	1041.596923828125	-602.7101440429688	-498.7779846191406	712.96728515625	-525.343017578125	-560.8347778320312	798.9711303710938	-587.8236694335938	-498.5870971679688	805.393310546875	-552.8472290039062	-574.7412719726562	1518.713623046875	-135.9236297607422	-590.4735107421875	1447.132690429688	-63.40213394165039	-621.9744873046875	1178.301513671875	-35.3919563293457	-627.4841918945312	1149.614868164062	-131.5433197021484	-448.8299560546875	949.0060424804688	-80.90615081787109	-505.6310424804688	918.13623046875	-15.42119407653809	-598.0222778320312	1102.097412109375	-21.63775062561035	-387.3250122070312	772.6222534179688	-100.4404220581055	-391.0696105957031	849.0491943359375	-70.54476165771484	-444.02001953125	830.3035888671875	-20.14473915100098	-589.9083862304688	1713.1533203125	-372.5404663085938	-410.4710998535156	1722.933227539062	-247.9544219970703	-409.0661010742188	1721.5439453125	-346.6125183105469	-584.2388305664062	1710.41552734375	-227.8986663818359	-587.8199462890625	958.88330078125	-485.5054626464844	-558.431640625	945.7685546875	-111.2358245849609	-460.9081420898438	981.9608764648438	-189.2487945556641	-471.2990112304688	1005.007507324219	-423.7518310546875	-485.3945922851562	518.3291015625	-416.5205078125	-525.1338500976562	650.859619140625	-461.6158142089844	-619.8186645507812	38.96957397460938	-408.6723937988281	-574.2507934570312	279.0232849121094	-430.3089904785156	-413.5416870117188	38.00904846191406	-308.0971069335938	-474.4896545410156	46.08247756958008	-302.7951049804688	-493.6599426269531	38.34813690185547	-408.9287109375	-696.6822509765625	47.11217880249023	-365.9835205078125	-449.8844604492188	515.170166015625	-136.7691955566406	-506.8645935058594	786.5692138671875	-114.502571105957	-835.2648315429688	188.76611328125	-149.5013732910156	-529.9076538085938	412.2634887695312	-131.3198699951172	-648.92431640625	52.82673645019531	-142.6756286621094	-692.5582275390625	86.00491333007812	-186.2553405761719	-726.2127075195312	102.9082489013672	-96.41948699951172	-871.7789916992188	214.3766937255859	-204.8884124755859	
